<?xml version="1.0" encoding="UTF-8"?>
<svg id="Layer_1" data-name="Layer 1" xmlns="http://www.w3.org/2000/svg" viewBox="0 0 1584.81 250">
  <defs>
    <style>
      .cls-1 {
        fill: #1c3c3c;
        stroke-width: 0px;
      }
    </style>
  </defs>
  <g id="LanChain-logo">
    <g id="LangChain-logotype">
      <polygon class="cls-1" points="596.33 49.07 596.33 200.67 700.76 200.67 700.76 177.78 620.04 177.78 620.04 49.07 596.33 49.07"/>
      <path class="cls-1" d="M1126.83,49.07c-20.53,0-37.95,7.4-50.38,21.41-12.32,13.88-18.82,33.36-18.82,56.33,0,47.23,27.25,77.75,69.41,77.75,29.71,0,52.71-15.54,61.54-41.56l2.14-6.31-23.53-8.94-2.17,7.03c-5.26,17.01-18.75,26.38-37.99,26.38-27.48,0-44.55-20.82-44.55-54.34s17.23-54.34,44.97-54.34c19.23,0,30.31,7.54,35.95,24.44l2.46,7.37,22.91-10.75-2.1-5.9c-8.96-25.22-29.65-38.56-59.85-38.56Z"/>
      <path class="cls-1" d="M756.43,85.05c-22.76,0-39.78,10.67-46.69,29.27-.44,1.19-1.77,4.78-1.77,4.78l19.51,12.62,2.65-6.91c4.52-11.78,12.88-17.27,26.3-17.27s21.1,6.51,20.96,19.33c0,.52-.04,2.09-.04,2.09,0,0-17.76,2.88-25.08,4.43-31.23,6.6-44.31,18.52-44.31,38.02,0,10.39,5.77,21.64,16.3,27.95,6.32,3.78,14.57,5.21,23.68,5.21,5.99,0,11.81-.89,17.2-2.53,12.25-4.07,15.67-12.07,15.67-12.07v10.46h20.29v-74.78c0-25.42-16.7-40.6-44.67-40.6ZM777.46,164.85c0,7.86-8.56,18.93-28.5,18.93-5.63,0-9.62-1.49-12.28-3.71-3.56-2.97-4.73-7.24-4.24-11.01.21-1.64,1.2-5.17,4.87-8.23,3.75-3.13,10.38-5.37,20.62-7.6,8.42-1.83,19.54-3.85,19.54-3.85v15.48Z"/>
      <path class="cls-1" d="M876.11,85.04c-2.82,0-5.57.2-8.24.57-18.17,2.73-23.49,11.96-23.49,11.96l.02-9.31h-22.74s0,112.19,0,112.19h23.71v-62.18c0-21.13,15.41-30.75,29.73-30.75,15.48,0,23,8.32,23,25.45v67.48h23.71v-70.74c0-27.56-17.51-44.67-45.69-44.67Z"/>
      <path class="cls-1" d="M1539.12,85.04c-2.82,0-5.57.2-8.24.57-18.17,2.73-23.49,11.96-23.49,11.96v-9.32h-22.72v112.2h23.71v-62.18c0-21.13,15.41-30.75,29.73-30.75,15.48,0,23,8.32,23,25.45v67.48h23.71v-70.74c0-27.56-17.51-44.67-45.69-44.67Z"/>
      <path class="cls-1" d="M1020.76,88.26v11.55s-5.81-14.77-32.24-14.77c-32.84,0-53.24,22.66-53.24,59.15,0,20.59,6.58,36.8,18.19,47.04,9.03,7.96,21.09,12.04,35.45,12.32,9.99.19,16.46-2.53,20.5-5.1,7.76-4.94,10.64-9.63,10.64-9.63,0,0-.33,3.67-.93,8.64-.43,3.6-1.24,6.13-1.24,6.13h0c-3.61,12.85-14.17,20.28-29.57,20.28s-24.73-5.07-26.58-15.06l-23.05,6.88c3.98,19.2,22,30.66,48.2,30.66,17.81,0,31.77-4.84,41.5-14.4,9.81-9.64,14.79-23.53,14.79-41.29v-102.41h-22.42ZM1019.26,145.21c0,22.44-10.96,35.84-29.32,35.84-19.67,0-30.95-13.44-30.95-36.86s11.28-36.66,30.95-36.66c17.92,0,29.15,13.34,29.32,34.82v2.86Z"/>
      <path class="cls-1" d="M1259.01,85.04c-2.6,0-5.13.17-7.59.49-17.88,2.79-23.14,11.9-23.14,11.9v-2.67h-.01s0-45.69,0-45.69h-23.71v151.39h23.71v-62.18c0-21.27,15.41-30.95,29.73-30.95,15.48,0,23,8.32,23,25.45v67.68h23.71v-70.94c0-27.01-17.94-44.47-45.69-44.47Z"/>
      <circle class="cls-1" cx="1450.93" cy="64.47" r="15.37"/>
      <path class="cls-1" d="M1439.14,88.2v56.94h0c-6.75-5.56-14.6-9.75-23.5-12.26v-7.23c0-25.42-16.7-40.6-44.67-40.6-22.76,0-39.78,10.67-46.69,29.27-.44,1.19-1.77,4.78-1.77,4.78l19.51,12.62,2.65-6.91c4.52-11.78,12.88-17.27,26.3-17.27s21.1,6.51,20.96,19.33c0,.08,0,1.15,0,2.86-10.04-.28-19.38.69-27.77,2.66,0,0,0,0,0,0-11.06,2.5-31.6,8.85-38.94,25.36-.05.11-1.13,2.96-1.13,2.96-1.06,3.28-1.59,6.84-1.59,10.7,0,10.39,5.77,21.64,16.3,27.95,6.32,3.78,14.57,5.21,23.68,5.21,5.88,0,11.6-.86,16.91-2.44,12.49-4.04,15.96-12.16,15.96-12.16v10.47h20.29v-34.27c-5.7-3.56-14.26-5.66-23.65-5.64,0,2.65,0,4.33,0,4.33,0,7.86-8.56,18.93-28.5,18.93-5.63,0-9.62-1.49-12.28-3.71-3.56-2.97-4.73-7.24-4.24-11.01.21-1.64,1.2-5.17,4.87-8.23l-.04-.11c8.42-6.89,24.97-9.64,40.17-9.04v.03c12.94.47,22.62,3.01,29.53,7.77,1.88,1.19,3.65,2.52,5.28,3.98,6.94,6.23,9.73,13.9,10.93,18.38,1.95,7.31,1.43,18.57,1.43,18.57h23.59v-112.2h-23.59Z"/>
    </g>
    <path id="LangChain-symbol" class="cls-1" d="M393.52,75.2c9.66,9.66,9.66,25.38,0,35.04l-21.64,21.29-.22-1.22c-1.58-8.75-5.74-16.69-12.02-22.97-4.73-4.72-10.32-8.21-16.62-10.37-3.91,3.93-6.06,9.08-6.06,14.5,0,1.1.1,2.24.3,3.38,3.47,1.25,6.54,3.18,9.12,5.76,9.66,9.66,9.66,25.38,0,35.04l-18.84,18.84c-4.83,4.83-11.17,7.24-17.52,7.24s-12.69-2.41-17.52-7.24c-9.66-9.66-9.66-25.38,0-35.04l21.64-21.28.22,1.22c1.57,8.73,5.73,16.67,12.03,22.96,4.74,4.74,9.99,7.89,16.28,10.04l1.16-1.16c3.52-3.52,5.45-8.2,5.45-13.19,0-1.11-.1-2.22-.29-3.31-3.63-1.2-6.62-2.91-9.34-5.63-3.92-3.92-6.36-8.93-7.04-14.48-.05-.4-.08-.79-.12-1.19-.54-7.23,2.07-14.29,7.16-19.37l18.84-18.84c4.67-4.67,10.89-7.25,17.52-7.25s12.85,2.57,17.52,7.25ZM491.9,125c0,68.93-56.08,125-125,125H125C56.08,250,0,193.93,0,125S56.08,0,125,0h241.9c68.93,0,125,56.08,125,125ZM240.9,187.69c1.97-2.39-7.13-9.12-8.99-11.59-3.78-4.1-3.8-10-6.35-14.79-6.24-14.46-13.41-28.81-23.44-41.05-10.6-13.39-23.68-24.47-35.17-37.04-8.53-8.77-10.81-21.26-18.34-30.69-10.38-15.33-43.2-19.51-48.01,2.14.02.68-.19,1.11-.78,1.54-2.66,1.93-5.03,4.14-7.02,6.81-4.87,6.78-5.62,18.28.46,24.37.2-3.21.31-6.24,2.85-8.54,4.7,4.03,11.8,5.46,17.25,2.45,12.04,17.19,9.04,40.97,18.6,59.49,2.64,4.38,5.3,8.85,8.69,12.69,2.75,4.28,12.25,9.33,12.81,13.29.1,6.8-.7,14.23,3.76,19.92,2.1,4.26-3.06,8.54-7.22,8.01-5.4.74-11.99-3.63-16.72-.94-1.67,1.81-4.94-.19-6.38,2.32-.5,1.3-3.2,3.13-1.59,4.38,1.79-1.36,3.45-2.78,5.86-1.97-.36,1.96,1.19,2.24,2.42,2.81-.04,1.33-.82,2.69.2,3.82,1.19-1.2,1.9-2.9,3.79-3.4,6.28,8.37,12.67-8.47,26.26-.89-2.76-.14-5.21.21-7.07,2.48-.46.51-.85,1.11-.04,1.77,7.33-4.73,7.29,1.62,12.05-.33,3.66-1.91,7.3-4.3,11.65-3.62-4.23,1.22-4.4,4.62-6.88,7.49-.42.44-.62.94-.13,1.67,8.78-.74,9.5-3.66,16.59-7.24,5.29-3.23,10.56,4.6,15.14.14,1.01-.97,2.39-.64,3.64-.77-1.6-8.53-19.19,1.56-18.91-9.88,5.66-3.85,4.36-11.22,4.74-17.17,6.51,3.61,13.75,5.71,20.13,9.16,3.22,5.2,8.27,12.07,15,11.62.18-.52.34-.98.53-1.51,2.04.35,4.66,1.7,5.78-.88,3.05,3.19,7.53,3.03,11.52,2.21,2.95-2.4-5.55-5.82-6.69-8.29ZM419.51,92.72c0-11.64-4.52-22.57-12.73-30.78-8.21-8.21-19.14-12.73-30.79-12.73s-22.58,4.52-30.79,12.73l-18.84,18.84c-4.4,4.4-7.74,9.57-9.93,15.36l-.13.33-.34.1c-6.84,2.11-12.87,5.73-17.92,10.78l-18.84,18.84c-16.97,16.98-16.97,44.6,0,61.57,8.21,8.21,19.14,12.73,30.78,12.73h0c11.64,0,22.58-4.52,30.79-12.73l18.84-18.84c4.38-4.38,7.7-9.53,9.89-15.31l.13-.33.34-.11c6.72-2.06,12.92-5.8,17.95-10.82l18.84-18.84c8.21-8.21,12.73-19.14,12.73-30.79ZM172.38,173.6c-1.62,6.32-2.15,17.09-10.37,17.4-.68,3.65,2.53,5.02,5.44,3.85,2.89-1.33,4.26,1.05,5.23,3.42,4.46.65,11.06-1.49,11.31-6.77-6.66-3.84-8.72-11.14-11.62-17.9Z"/>
  </g>
</svg>