<svg width="3000" height="554" viewBox="0 0 3000 554" fill="none" xmlns="http://www.w3.org/2000/svg">
<g clip-path="url(#clip0_7880_26096)">
<path d="M1599.44 227.244H1598.94C1589.71 205.732 1563.05 182.656 1518.96 182.656C1447.21 182.656 1395.95 232.889 1395.95 316.953C1395.95 401.018 1447.71 452.28 1519.45 452.28C1565.07 452.28 1588.64 429.738 1598.9 404.641H1599.4V436.413C1599.4 481.535 1576.32 503.047 1534.82 503.047C1499.96 503.047 1476.92 490.727 1470.78 462.044H1406.21C1413.38 514.337 1461.59 553.28 1535.89 553.28C1606.11 553.28 1668.62 517.884 1668.62 427.183V189.827H1599.47V227.244H1599.44ZM1533.79 400.522C1486.12 400.522 1462.01 361.045 1462.01 317.487C1462.01 273.929 1486.61 234.987 1533.79 234.987C1580.97 234.987 1605.54 279.574 1605.54 317.487C1605.54 355.4 1586.05 400.522 1533.79 400.522Z" fill="#030710"/>
<path d="M1088.87 294.449C1088.87 229.341 1058.13 181.664 975.056 181.664C905.333 181.664 869.022 227.358 861.317 270.878H923.336C930.01 246.276 949.501 230.905 975.628 230.905C1005.84 230.905 1024.3 243.187 1024.3 264.203C1024.3 286.745 1007.9 291.894 973.568 297.005C936.647 302.612 849.531 309.782 849.531 382.595C849.531 427.182 884.393 462.044 942.292 462.044C992.525 462.044 1014.57 435.383 1025.33 414.405H1025.86V427.716C1025.86 436.413 1026.39 446.177 1027.92 454.873H1094.02C1090.4 437.938 1088.91 410.781 1088.91 390.299V294.449H1088.87ZM1025.33 331.904C1025.33 393.427 994.088 413.375 960.257 413.375C930.544 413.375 915.135 399.53 915.135 379.543C915.135 359.557 931.04 348.801 966.398 341.592C1005.34 333.926 1019.19 322.14 1025.33 309.324V331.866V331.904Z" fill="#030710"/>
<path d="M1274.43 182.695C1233.43 182.695 1209.89 204.703 1194.98 235.483V189.866H1130.41V454.875H1196.51V335.949C1196.51 271.375 1220.61 240.099 1255.97 240.099C1293.92 240.099 1304.14 270.345 1304.14 308.792V454.875H1369.75V292.887C1369.75 227.817 1343.08 182.695 1274.39 182.695H1274.43Z" fill="#030710"/>
<path d="M1890.27 140.664C1939.97 140.664 1973.8 160.65 1993.29 203.712H2060.95C2038.41 128.878 1982 82.2305 1890.27 82.2305C1779.05 82.2305 1703.68 161.222 1703.68 272.405C1703.68 383.588 1778.51 461.55 1889.73 461.512C1980.47 461.512 2042.49 412.843 2060.95 340.03H1992.79C1977.92 378.973 1946.14 403.079 1890.27 403.079C1819.51 403.079 1772.37 347.735 1772.37 272.405C1772.37 197.075 1819.02 140.702 1890.27 140.702V140.664Z" fill="#030710"/>
<path d="M2904.65 182.695C2863.64 182.695 2840.11 204.703 2825.2 235.483V189.866H2760.62V454.875H2826.72V335.949C2826.72 271.375 2850.83 240.099 2886.19 240.099C2924.1 240.099 2934.36 270.345 2934.36 308.792V454.875H2999.96V292.887C2999.96 227.817 2973.3 182.695 2904.61 182.695H2904.65Z" fill="#030710"/>
<path d="M2716.03 111.676H2647.88V173.198H2716.03V111.676Z" fill="#030710"/>
<path d="M2648.91 235.751V454.837H2715.01V189.828H2694.79C2669.43 189.828 2648.91 210.387 2648.91 235.751Z" fill="#030710"/>
<path d="M2242.39 182.62C2201.39 182.62 2177.85 204.665 2162.94 234.912V88.8672H2098.37V454.761H2164.47V335.835C2164.47 271.261 2188.57 239.985 2223.93 239.985C2261.88 239.985 2272.1 270.231 2272.1 308.678V454.761H2337.71V292.773C2337.71 227.703 2311.05 182.581 2242.35 182.581L2242.39 182.62Z" fill="#030710"/>
<path d="M2605.84 294.449C2605.84 229.341 2575.1 181.664 2492.03 181.664C2422.31 181.664 2386 227.358 2378.33 270.878H2440.35C2447.02 246.276 2466.51 230.905 2492.64 230.905C2522.85 230.905 2541.31 243.187 2541.31 264.203C2541.31 286.745 2524.91 291.894 2490.58 297.005C2453.66 302.612 2366.54 309.782 2366.54 382.595C2366.54 427.182 2401.4 462.044 2459.3 462.044C2509.54 462.044 2531.58 435.383 2542.34 414.405H2542.83V427.716C2542.83 436.413 2543.33 446.177 2544.89 454.873H2610.99C2607.41 437.938 2605.88 410.781 2605.88 390.299V294.449H2605.84ZM2542.26 331.904C2542.26 393.427 2511.02 413.375 2477.19 413.375C2447.48 413.375 2432.07 399.53 2432.07 379.543C2432.07 359.557 2447.98 348.801 2483.33 341.592C2522.28 333.926 2536.12 322.14 2542.26 309.324V331.866V331.904Z" fill="#030710"/>
<path d="M657.602 333.318V88.8672H591.197V379.431H611.489C636.967 379.431 657.602 358.796 657.602 333.318Z" fill="#030710"/>
<path d="M828.858 396.176H591.197V454.876H828.858V396.176Z" fill="#030710"/>
</g>
<g clip-path="url(#clip1_7880_26096)">
<path d="M153.197 324.988C181.918 296.266 198.063 257.269 198.063 216.654C198.063 176.039 181.904 137.042 153.197 108.32L44.866 0C16.159 28.7218 0 67.7192 0 108.334C0 148.949 16.159 187.946 44.866 216.668L153.183 324.988H153.197Z" fill="#030710"/>
<path d="M379.871 335.012C351.164 306.304 312.153 290.145 271.554 290.145C230.954 290.145 191.944 306.304 163.223 335.012L271.554 443.346C300.261 472.054 339.271 488.213 379.885 488.213C420.498 488.213 459.495 472.054 488.215 443.346L379.885 335.012H379.871Z" fill="#030710"/>
<path d="M45.13 443.096C73.8509 471.804 112.847 487.963 153.461 487.963V334.762H0.25C0.263942 375.377 16.409 414.374 45.13 443.096Z" fill="#030710"/>
<path d="M421.695 174.84C392.974 146.132 353.978 129.959 313.35 129.973C272.737 129.973 233.74 146.132 205.02 174.854L313.35 283.188L421.695 174.84Z" fill="#030710"/>
</g>
<defs>
<clipPath id="clip0_7880_26096">
<rect width="2408.8" height="471.05" fill="white" transform="translate(591.197 82.2305)"/>
</clipPath>
<clipPath id="clip1_7880_26096">
<rect width="488.214" height="488.214" fill="white"/>
</clipPath>
</defs>
</svg>
