<svg width="472" height="100" viewBox="0 0 472 100" fill="none" xmlns="http://www.w3.org/2000/svg">
<rect width="100" height="100" rx="20" fill="#161F34"/>
<path d="M54.2612 54.2583L63.1942 45.3253C67.8979 40.6215 67.8979 32.9952 63.1942 28.2914C58.4904 23.5877 50.8641 23.5877 46.1603 28.2914L37.2273 37.2244" stroke="#7FC8FF" stroke-width="12.0389"/>
<path d="M45.7427 45.7411L36.8098 54.6741C32.106 59.3779 32.106 67.0042 36.8098 71.7079C41.5135 76.4117 49.1398 76.4117 53.8436 71.7079L62.7766 62.775" stroke="#7FC8FF" stroke-width="12.0389"/>
<path d="M142.427 70.248V65.748H153.227V32.748H142.427V28.248H158.147V65.748H168.947V70.248H142.427ZM189.174 70.608C182.454 70.608 177.894 67.248 177.894 61.668C177.894 55.548 182.154 52.128 190.194 52.128H199.194V50.028C199.194 46.068 196.374 43.668 191.574 43.668C187.254 43.668 184.374 45.708 183.774 48.828H178.854C179.574 42.828 184.434 39.288 191.814 39.288C199.614 39.288 204.114 43.188 204.114 50.328V63.708C204.114 65.328 204.714 65.748 206.094 65.748H207.654V70.248H204.954C200.874 70.248 199.494 68.508 199.434 65.508C197.514 68.268 194.454 70.608 189.174 70.608ZM189.534 66.408C195.654 66.408 199.194 62.868 199.194 57.768V56.268H189.714C185.334 56.268 182.874 57.888 182.874 61.368C182.874 64.368 185.454 66.408 189.534 66.408ZM216.601 70.248V39.648H220.861L221.521 43.788C223.321 41.448 226.321 39.288 231.121 39.288C237.601 39.288 243.001 42.948 243.001 52.848V70.248H238.081V53.148C238.081 47.028 235.201 43.788 230.281 43.788C224.941 43.788 221.521 47.928 221.521 53.988V70.248H216.601ZM266.348 82.608C258.548 82.608 253.088 78.948 252.308 72.228H257.348C258.188 76.068 261.608 78.228 266.708 78.228C273.128 78.228 276.608 75.228 276.608 68.568V64.968C274.568 68.448 271.268 70.608 266.108 70.608C257.648 70.608 251.408 64.908 251.408 54.948C251.408 45.588 257.648 39.288 266.108 39.288C271.268 39.288 274.688 41.508 276.608 44.928L277.268 39.648H281.528V68.748C281.528 77.568 276.848 82.608 266.348 82.608ZM266.588 66.228C272.588 66.228 276.668 61.608 276.668 55.068C276.668 48.348 272.588 43.668 266.588 43.668C260.528 43.668 256.448 48.288 256.448 54.948C256.448 61.608 260.528 66.228 266.588 66.228ZM304.875 70.608C295.935 70.608 290.055 64.548 290.055 55.008C290.055 45.648 296.115 39.288 304.995 39.288C312.495 39.288 317.235 43.488 318.495 50.208H313.335C312.435 46.128 309.435 43.668 304.935 43.668C299.055 43.668 295.095 48.348 295.095 55.008C295.095 61.668 299.055 66.228 304.935 66.228C309.315 66.228 312.315 63.708 313.275 59.808H318.495C317.295 66.408 312.315 70.608 304.875 70.608ZM328.042 70.248V28.248H332.962V43.788C335.242 40.968 338.782 39.288 342.742 39.288C350.422 39.288 354.802 44.388 354.802 53.208V70.248H349.882V53.508C349.882 47.268 347.002 43.788 341.902 43.788C336.442 43.788 332.962 48.108 332.962 54.948V70.248H328.042ZM375.209 70.608C368.489 70.608 363.929 67.248 363.929 61.668C363.929 55.548 368.189 52.128 376.229 52.128H385.229V50.028C385.229 46.068 382.409 43.668 377.609 43.668C373.289 43.668 370.409 45.708 369.809 48.828H364.889C365.609 42.828 370.469 39.288 377.849 39.288C385.649 39.288 390.149 43.188 390.149 50.328V63.708C390.149 65.328 390.749 65.748 392.129 65.748H393.689V70.248H390.989C386.909 70.248 385.529 68.508 385.469 65.508C383.549 68.268 380.489 70.608 375.209 70.608ZM375.569 66.408C381.689 66.408 385.229 62.868 385.229 57.768V56.268H375.749C371.369 56.268 368.909 57.888 368.909 61.368C368.909 64.368 371.489 66.408 375.569 66.408ZM403.476 70.248V65.748H414.276V44.148H403.476V39.648H419.196V65.748H429.996V70.248H403.476ZM416.796 34.248C414.576 34.248 412.836 32.568 412.836 30.288C412.836 28.068 414.576 26.388 416.796 26.388C419.016 26.388 420.756 28.068 420.756 30.288C420.756 32.568 419.016 34.248 416.796 34.248ZM439.843 70.248V39.648H444.103L444.763 43.788C446.563 41.448 449.563 39.288 454.363 39.288C460.843 39.288 466.243 42.948 466.243 52.848V70.248H461.323V53.148C461.323 47.028 458.443 43.788 453.523 43.788C448.183 43.788 444.763 47.928 444.763 53.988V70.248H439.843Z" fill="#161F34"/>
</svg>
