<svg width="72" height="20" viewBox="0 0 72 20" fill="none" xmlns="http://www.w3.org/2000/svg">
<g clip-path="url(#clip0_4019_689)">
<path d="M29.4038 5.97905C30.1256 6.70085 30.1256 7.87545 29.4038 8.59724L27.7869 10.188L27.7704 10.0969C27.6524 9.44307 27.3415 8.84979 26.8723 8.38055C26.5189 8.02787 26.1012 7.7671 25.6305 7.60571C25.3383 7.89936 25.1777 8.28416 25.1777 8.68915C25.1777 8.77134 25.1851 8.85652 25.2001 8.9417C25.4593 9.0351 25.6887 9.17931 25.8815 9.37209C26.6033 10.0939 26.6033 11.2685 25.8815 11.9903L24.4738 13.398C24.1129 13.7589 23.6392 13.939 23.1647 13.939C22.6902 13.939 22.2165 13.7589 21.8556 13.398C21.1338 12.6762 21.1338 11.5016 21.8556 10.7798L23.4725 9.18977L23.489 9.28093C23.6063 9.93323 23.9171 10.5265 24.3879 10.9965C24.742 11.3507 25.1343 11.586 25.6043 11.7467L25.691 11.66C25.954 11.397 26.0982 11.0473 26.0982 10.6745C26.0982 10.5915 26.0907 10.5086 26.0765 10.4271C25.8053 10.3375 25.5819 10.2097 25.3786 10.0065C25.0857 9.71356 24.9034 9.33921 24.8526 8.92451C24.8489 8.89463 24.8466 8.86549 24.8437 8.8356C24.8033 8.29537 24.9983 7.76785 25.3786 7.38827L26.7864 5.98055C27.1353 5.6316 27.6001 5.43883 28.0955 5.43883C28.5909 5.43883 29.0556 5.63086 29.4046 5.98055L29.4038 5.97905ZM36.7548 9.70011C36.7548 14.8506 32.5645 19.0401 27.4148 19.0401H9.34C4.1903 19.0401 0 14.8506 0 9.70011C0 4.54966 4.1903 0.360107 9.34 0.360107H27.4148C32.5652 0.360107 36.7548 4.55041 36.7548 9.70011ZM18 14.3843C18.1472 14.2057 17.4673 13.7029 17.3283 13.5183C17.0459 13.2119 17.0444 12.7711 16.8538 12.4132C16.3876 11.3327 15.8518 10.2605 15.1024 9.34594C14.3104 8.34543 13.333 7.51754 12.4745 6.57831C11.8371 5.92301 11.6668 4.98976 11.1041 4.28515C10.3285 3.13969 7.87624 2.82736 7.51683 4.44505C7.51833 4.49586 7.50264 4.52799 7.45855 4.56012C7.2598 4.70433 7.08271 4.86946 6.93402 5.06896C6.57013 5.57556 6.51409 6.43484 6.96839 6.88989C6.98333 6.65004 6.99155 6.42364 7.18134 6.25178C7.53252 6.5529 8.06304 6.65975 8.47026 6.43484C9.36989 7.71928 9.14573 9.49612 9.86005 10.8799C10.0573 11.2072 10.2561 11.5412 10.5094 11.8281C10.7148 12.1479 11.4247 12.5253 11.4665 12.8212C11.474 13.3293 11.4142 13.8844 11.7475 14.3096C11.9044 14.6279 11.5188 14.9477 11.208 14.9081C10.8045 14.9634 10.3121 14.6369 9.95868 14.8379C9.8339 14.9731 9.58957 14.8237 9.48197 15.0112C9.44461 15.1083 9.24286 15.2451 9.36316 15.3385C9.49691 15.2369 9.62095 15.1308 9.80102 15.1913C9.77412 15.3377 9.88994 15.3587 9.98184 15.4012C9.97886 15.5006 9.92057 15.6022 9.99679 15.6867C10.0857 15.597 10.1388 15.47 10.28 15.4326C10.7492 16.058 11.2267 14.7997 12.2421 15.3661C12.0359 15.3557 11.8528 15.3818 11.7139 15.5514C11.6795 15.5895 11.6503 15.6344 11.7109 15.6837C12.2586 15.3303 12.2556 15.8047 12.6112 15.659C12.8847 15.5163 13.1567 15.3377 13.4817 15.3885C13.1657 15.4797 13.153 15.7337 12.9677 15.9482C12.9363 15.9811 12.9213 16.0184 12.9579 16.073C13.614 16.0177 13.6678 15.7995 14.1975 15.532C14.5928 15.2907 14.9866 15.8757 15.3288 15.5425C15.4043 15.47 15.5074 15.4946 15.6008 15.4849C15.4812 14.8476 14.1669 15.6015 14.1878 14.7467C14.6107 14.459 14.5136 13.9083 14.542 13.4638C15.0284 13.7335 15.5694 13.8904 16.0461 14.1482C16.2867 14.5367 16.6641 15.0501 17.1669 15.0164C17.1804 14.9776 17.1923 14.9432 17.2065 14.9036C17.359 14.9298 17.5547 15.0306 17.6384 14.8379C17.8663 15.0762 18.201 15.0643 18.4992 15.003C18.7196 14.8237 18.0845 14.5681 17.9993 14.3836L18 14.3843ZM31.3458 7.28815C31.3458 6.41841 31.0081 5.60172 30.3946 4.98826C29.7812 4.37481 28.9645 4.03708 28.094 4.03708C27.2235 4.03708 26.4068 4.37481 25.7933 4.98826L24.3856 6.39599C24.0569 6.72476 23.8073 7.11106 23.6436 7.54369L23.6339 7.56835L23.6085 7.57582C23.0974 7.73348 22.6469 8.00396 22.2696 8.3813L20.8618 9.78902C19.5938 11.0578 19.5938 13.1215 20.8618 14.3895C21.4753 15.003 22.292 15.3407 23.1617 15.3407C24.0314 15.3407 24.8489 15.003 25.4623 14.3895L26.8701 12.9818C27.1973 12.6545 27.4454 12.2697 27.609 11.8378L27.6188 11.8132L27.6442 11.805C28.1463 11.651 28.6095 11.3716 28.9854 10.9965L30.3931 9.58878C31.0066 8.97532 31.3443 8.15863 31.3443 7.28815H31.3458ZM12.8802 13.3315C12.7592 13.8037 12.7196 14.6085 12.1054 14.6316C12.0546 14.9044 12.2944 15.0067 12.5119 14.9193C12.7278 14.8199 12.8302 14.9978 12.9026 15.1748C13.2359 15.2234 13.7291 15.0635 13.7477 14.669C13.2501 14.3821 13.0962 13.8366 12.8795 13.3315H12.8802Z" fill="#246161"/>
<path d="M43.5142 15.3601L47.1462 3.84011H49.9702L53.6022 15.3601H51.6182L48.3222 5.02411H48.7542L45.4982 15.3601H43.5142ZM45.5382 12.8641V11.0641H51.5862V12.8641H45.5382ZM55.0486 15.3601V3.84011H59.8086C59.9206 3.84011 60.0646 3.84544 60.2406 3.85611C60.4166 3.86144 60.5792 3.87744 60.7286 3.90411C61.3952 4.00544 61.9446 4.22677 62.3766 4.56811C62.8139 4.90944 63.1366 5.34144 63.3446 5.86411C63.5579 6.38144 63.6646 6.95744 63.6646 7.59211C63.6646 8.22144 63.5579 8.79744 63.3446 9.32011C63.1312 9.83744 62.8059 10.2668 62.3686 10.6081C61.9366 10.9494 61.3899 11.1708 60.7286 11.2721C60.5792 11.2934 60.4139 11.3094 60.2326 11.3201C60.0566 11.3308 59.9152 11.3361 59.8086 11.3361H56.9766V15.3601H55.0486ZM56.9766 9.53611H59.7286C59.8352 9.53611 59.9552 9.53077 60.0886 9.52011C60.2219 9.50944 60.3446 9.48811 60.4566 9.45611C60.7766 9.37611 61.0272 9.23477 61.2086 9.03211C61.3952 8.82944 61.5259 8.60011 61.6006 8.34411C61.6806 8.08811 61.7206 7.83744 61.7206 7.59211C61.7206 7.34677 61.6806 7.09611 61.6006 6.84011C61.5259 6.57877 61.3952 6.34677 61.2086 6.14411C61.0272 5.94144 60.7766 5.80011 60.4566 5.72011C60.3446 5.68811 60.2219 5.66944 60.0886 5.66411C59.9552 5.65344 59.8352 5.64811 59.7286 5.64811H56.9766V9.53611ZM65.4273 15.3601V3.84011H67.3553V15.3601H65.4273Z" fill="#246161"/>
</g>
<defs>
<clipPath id="clip0_4019_689">
<rect width="71.0711" height="18.68" fill="white" transform="translate(0 0.360107)"/>
</clipPath>
</defs>
</svg>
