<svg width="72" height="19" viewBox="0 0 72 19" fill="none" xmlns="http://www.w3.org/2000/svg">
<g clip-path="url(#clip0_4019_2020)">
<path d="M29.4038 5.84477C30.1256 6.56657 30.1256 7.74117 29.4038 8.46296L27.7869 10.0538L27.7704 9.96259C27.6524 9.30879 27.3415 8.71552 26.8723 8.24627C26.5189 7.8936 26.1012 7.63282 25.6305 7.47143C25.3383 7.76508 25.1777 8.14989 25.1777 8.55487C25.1777 8.63706 25.1851 8.72224 25.2001 8.80742C25.4593 8.90082 25.6887 9.04503 25.8815 9.23781C26.6033 9.9596 26.6033 11.1342 25.8815 11.856L24.4738 13.2637C24.1129 13.6246 23.6392 13.8047 23.1647 13.8047C22.6902 13.8047 22.2165 13.6246 21.8556 13.2637C21.1338 12.5419 21.1338 11.3673 21.8556 10.6455L23.4725 9.05549L23.489 9.14665C23.6063 9.79896 23.9171 10.3922 24.3879 10.8622C24.742 11.2164 25.1343 11.4518 25.6043 11.6124L25.691 11.5257C25.954 11.2627 26.0982 10.913 26.0982 10.5402C26.0982 10.4572 26.0907 10.3743 26.0765 10.2929C25.8053 10.2032 25.5819 10.0754 25.3786 9.87218C25.0857 9.57928 24.9034 9.20493 24.8526 8.79024C24.8489 8.76035 24.8466 8.73121 24.8437 8.70132C24.8033 8.16109 24.9983 7.63357 25.3786 7.25399L26.7864 5.84627C27.1353 5.49733 27.6001 5.30455 28.0955 5.30455C28.5909 5.30455 29.0556 5.49658 29.4046 5.84627L29.4038 5.84477ZM36.7548 9.56583C36.7548 14.7163 32.5645 18.9058 27.4148 18.9058H9.34C4.1903 18.9058 0 14.7163 0 9.56583C0 4.41538 4.1903 0.22583 9.34 0.22583H27.4148C32.5652 0.22583 36.7548 4.41613 36.7548 9.56583ZM18 14.25C18.1472 14.0714 17.4673 13.5686 17.3283 13.384C17.0459 13.0777 17.0444 12.6368 16.8538 12.2789C16.3876 11.1985 15.8518 10.1262 15.1024 9.21166C14.3104 8.21116 13.333 7.38326 12.4745 6.44403C11.8371 5.78873 11.6668 4.85548 11.1041 4.15087C10.3285 3.00541 7.87624 2.69308 7.51683 4.31077C7.51833 4.36158 7.50264 4.39371 7.45855 4.42584C7.2598 4.57005 7.08271 4.73518 6.93402 4.93468C6.57013 5.44129 6.51409 6.30057 6.96839 6.75561C6.98333 6.51576 6.99155 6.28936 7.18134 6.1175C7.53252 6.41862 8.06304 6.52547 8.47026 6.30057C9.36989 7.585 9.14573 9.36184 9.86005 10.7457C10.0573 11.0729 10.2561 11.4069 10.5094 11.6939C10.7148 12.0137 11.4247 12.391 11.4665 12.6869C11.474 13.195 11.4142 13.7502 11.7475 14.1753C11.9044 14.4936 11.5188 14.8134 11.208 14.7738C10.8045 14.8291 10.3121 14.5026 9.95868 14.7036C9.8339 14.8388 9.58957 14.6894 9.48197 14.8769C9.44461 14.9741 9.24286 15.1108 9.36316 15.2042C9.49691 15.1026 9.62095 14.9965 9.80102 15.057C9.77412 15.2035 9.88994 15.2244 9.98184 15.267C9.97886 15.3663 9.92057 15.468 9.99679 15.5524C10.0857 15.4627 10.1388 15.3357 10.28 15.2983C10.7492 15.9238 11.2267 14.6655 12.2421 15.2318C12.0359 15.2214 11.8528 15.2475 11.7139 15.4172C11.6795 15.4553 11.6503 15.5001 11.7109 15.5494C12.2586 15.196 12.2556 15.6705 12.6112 15.5248C12.8847 15.382 13.1567 15.2035 13.4817 15.2543C13.1657 15.3454 13.153 15.5995 12.9677 15.8139C12.9363 15.8468 12.9213 15.8842 12.9579 15.9387C13.614 15.8834 13.6678 15.6652 14.1975 15.3977C14.5928 15.1564 14.9866 15.7414 15.3288 15.4082C15.4043 15.3357 15.5074 15.3604 15.6008 15.3507C15.4812 14.7133 14.1669 15.4672 14.1878 14.6124C14.6107 14.3247 14.5136 13.7741 14.542 13.3295C15.0284 13.5992 15.5694 13.7561 16.0461 14.0139C16.2867 14.4025 16.6641 14.9158 17.1669 14.8822C17.1804 14.8433 17.1923 14.8089 17.2065 14.7693C17.359 14.7955 17.5547 14.8964 17.6384 14.7036C17.8663 14.9419 18.201 14.93 18.4992 14.8687C18.7196 14.6894 18.0845 14.4338 17.9993 14.2493L18 14.25ZM31.3458 7.15387C31.3458 6.28413 31.0081 5.46744 30.3946 4.85399C29.7812 4.24054 28.9645 3.9028 28.094 3.9028C27.2235 3.9028 26.4068 4.24054 25.7933 4.85399L24.3856 6.26171C24.0569 6.59048 23.8073 6.97678 23.6436 7.40941L23.6339 7.43407L23.6085 7.44154C23.0974 7.5992 22.6469 7.86969 22.2696 8.24702L20.8618 9.65475C19.5938 10.9235 19.5938 12.9873 20.8618 14.2553C21.4753 14.8687 22.292 15.2064 23.1617 15.2064C24.0314 15.2064 24.8489 14.8687 25.4623 14.2553L26.8701 12.8475C27.1973 12.5203 27.4454 12.1355 27.609 11.7036L27.6188 11.6789L27.6442 11.6707C28.1463 11.5168 28.6095 11.2373 28.9854 10.8622L30.3931 9.4545C31.0066 8.84105 31.3443 8.02436 31.3443 7.15387H31.3458ZM12.8802 13.1972C12.7592 13.6695 12.7196 14.4742 12.1054 14.4974C12.0546 14.7701 12.2944 14.8724 12.5119 14.785C12.7278 14.6856 12.8302 14.8635 12.9026 15.0406C13.2359 15.0891 13.7291 14.9292 13.7477 14.5347C13.2501 14.2478 13.0962 13.7023 12.8795 13.1972H12.8802Z" fill="#F4F3FF"/>
<path d="M43.5142 15.2258L47.1462 3.70583H49.9702L53.6022 15.2258H51.6182L48.3222 4.88983H48.7542L45.4982 15.2258H43.5142ZM45.5382 12.7298V10.9298H51.5862V12.7298H45.5382ZM55.0486 15.2258V3.70583H59.8086C59.9206 3.70583 60.0646 3.71116 60.2406 3.72183C60.4166 3.72716 60.5792 3.74316 60.7286 3.76983C61.3952 3.87116 61.9446 4.0925 62.3766 4.43383C62.8139 4.77516 63.1366 5.20716 63.3446 5.72983C63.5579 6.24716 63.6646 6.82316 63.6646 7.45783C63.6646 8.08716 63.5579 8.66316 63.3446 9.18583C63.1312 9.70316 62.8059 10.1325 62.3686 10.4738C61.9366 10.8152 61.3899 11.0365 60.7286 11.1378C60.5792 11.1592 60.4139 11.1752 60.2326 11.1858C60.0566 11.1965 59.9152 11.2018 59.8086 11.2018H56.9766V15.2258H55.0486ZM56.9766 9.40183H59.7286C59.8352 9.40183 59.9552 9.3965 60.0886 9.38583C60.2219 9.37516 60.3446 9.35383 60.4566 9.32183C60.7766 9.24183 61.0272 9.1005 61.2086 8.89783C61.3952 8.69516 61.5259 8.46583 61.6006 8.20983C61.6806 7.95383 61.7206 7.70316 61.7206 7.45783C61.7206 7.2125 61.6806 6.96183 61.6006 6.70583C61.5259 6.4445 61.3952 6.2125 61.2086 6.00983C61.0272 5.80716 60.7766 5.66583 60.4566 5.58583C60.3446 5.55383 60.2219 5.53516 60.0886 5.52983C59.9552 5.51916 59.8352 5.51383 59.7286 5.51383H56.9766V9.40183ZM65.4273 15.2258V3.70583H67.3553V15.2258H65.4273Z" fill="#F4F3FF"/>
</g>
<defs>
<clipPath id="clip0_4019_2020">
<rect width="71.0711" height="18.68" fill="white" transform="translate(0 0.22583)"/>
</clipPath>
</defs>
</svg>
