<svg id="Layer_1" data-name="Layer 1" xmlns="http://www.w3.org/2000/svg" width="38.73" height="50" viewBox="0 0 38.73 50"><defs><style>.cls-1{fill:#767677;}.cls-2{fill:#f37726;}.cls-3{fill:#9e9e9e;}.cls-4{fill:#616262;}.cls-5{font-size:17.07px;fill:#fff;font-family:Roboto-Regular, Roboto;}</style></defs><title>logo_jupyterhub</title><g id="Canvas"><path id="path7_fill" data-name="path7 fill" class="cls-1" d="M39.51,3.53a3,3,0,0,1-1.7,2.9A3,3,0,0,1,34.48,6a3,3,0,0,1-.82-3.26,3,3,0,0,1,1.05-1.41A3,3,0,0,1,37.52.86a2.88,2.88,0,0,1,1,.6,3,3,0,0,1,.7.93,3.18,3.18,0,0,1,.28,1.14Z" transform="translate(-1.87 -0.69)"/><path id="path8_fill" data-name="path8 fill" class="cls-2" d="M21.91,38.39c-8,0-15.06-2.87-18.7-7.12a19.93,19.93,0,0,0,37.39,0C37,35.52,30,38.39,21.91,38.39Z" transform="translate(-1.87 -0.69)"/><path id="path9_fill" data-name="path9 fill" class="cls-2" d="M21.91,10.78c8,0,15.05,2.87,18.69,7.12a19.93,19.93,0,0,0-37.39,0C6.85,13.64,13.86,10.78,21.91,10.78Z" transform="translate(-1.87 -0.69)"/><path id="path10_fill" data-name="path10 fill" class="cls-3" d="M10.88,46.66a3.86,3.86,0,0,1-.52,2.15,3.81,3.81,0,0,1-1.62,1.51,3.93,3.93,0,0,1-2.19.34,3.79,3.79,0,0,1-2-.94,3.73,3.73,0,0,1-1.14-1.9,3.79,3.79,0,0,1,.1-2.21,3.86,3.86,0,0,1,1.33-1.78,3.92,3.92,0,0,1,3.54-.53,3.85,3.85,0,0,1,2.14,1.93,3.74,3.74,0,0,1,.37,1.43Z" transform="translate(-1.87 -0.69)"/><path id="path11_fill" data-name="path11 fill" class="cls-4" d="M4.12,9.81A2.18,2.18,0,0,1,2.9,9.48a2.23,2.23,0,0,1-.84-1A2.26,2.26,0,0,1,1.9,7.26a2.13,2.13,0,0,1,.56-1.13,2.18,2.18,0,0,1,2.36-.56,2.13,2.13,0,0,1,1,.76,2.18,2.18,0,0,1,.42,1.2A2.22,2.22,0,0,1,4.12,9.81Z" transform="translate(-1.87 -0.69)"/></g><text class="cls-5" transform="translate(5.24 30.01)">Hub</text></svg>
