<svg viewBox="0 0 128 128" fill="none" xmlns="http://www.w3.org/2000/svg"><path fill-rule="evenodd" clip-rule="evenodd" d="M0 128h52.512l29.539-11.077-11.077-43.487-34.051 3.693L0 128Z" fill="#0076D4"/><path fill-rule="evenodd" clip-rule="evenodd" d="M52.513 128s16.6-8.759 19.673-24.277c3.072-15.517-12.091-26.594-35.263-26.594 0-.41 20.343-28.718 20.343-28.718l49.4 1.435L95.71 107.7l-20.452 15.978L52.513 128Z" fill="#002868"/><path fill-rule="evenodd" clip-rule="evenodd" d="M0 60.718 41.025.001s1.006.01 3.282 0c16.082-.068 81.23 3.12 81.23 60.368 0 65.352-73.025 67.631-73.025 67.631s30.495-5.839 30.495-34.816c0-28.978-27.541-32.466-45.264-32.466H0Z" fill="#00A9FF"/></svg>
